<svg preserveAspectRatio="none" overflow="visible" style="display: block;" width="125.119" height="57.0779" viewBox="0 0 125.119 57.0779" fill="none" xmlns="http://www.w3.org/2000/svg">
<path id="Vector" d="M4.97172 56.8353H3.97738L0 45.9217H1.12773L4.23203 54.6525L4.37754 55.1376C4.37754 55.3074 4.4503 55.4771 4.4988 55.659C4.52628 55.4995 4.56272 55.3416 4.60794 55.1861C4.60794 55.0163 4.70495 54.8223 4.7777 54.6283L8.00326 45.8975H9.09461L4.97172 56.8353ZM11.0833 47.0495C10.9034 47.0459 10.731 46.9769 10.5983 46.8554C10.5359 46.7847 10.4886 46.7019 10.4594 46.6123C10.4303 46.5226 10.4197 46.4279 10.4285 46.334C10.4266 46.2432 10.444 46.153 10.4796 46.0694C10.5151 45.9858 10.5679 45.9106 10.6346 45.849C10.7635 45.72 10.9374 45.6461 11.1197 45.6428C11.2122 45.6302 11.306 45.6302 11.3986 45.6428C11.4822 45.6796 11.5598 45.7287 11.629 45.7883C11.691 45.8511 11.7404 45.9252 11.7745 46.0066C11.8132 46.0946 11.8338 46.1894 11.8351 46.2855C11.8478 46.378 11.8478 46.4719 11.8351 46.5644C11.7969 46.6465 11.7434 46.7206 11.6775 46.7827C11.6166 46.8527 11.5365 46.9033 11.4471 46.9282C11.3414 47.0054 11.2142 47.0478 11.0833 47.0495ZM10.5983 56.8353V49.026H11.6411V56.8353H10.5983ZM13.654 55.4286C13.9604 55.6666 14.3048 55.8511 14.6726 55.9743C14.8515 56.0468 15.039 56.0958 15.2304 56.1198C15.4038 56.137 15.5785 56.137 15.7519 56.1198C16.916 56.1198 17.498 55.6833 17.498 54.8102C17.4981 54.6333 17.4566 54.4588 17.3768 54.3009C17.2835 54.1482 17.1645 54.0128 17.0251 53.9007C16.8588 53.784 16.6798 53.6863 16.4916 53.6097C16.2585 53.4891 16.0197 53.3799 15.7761 53.2823C15.4528 53.1594 15.1404 53.0093 14.8424 52.8336C14.6073 52.6968 14.3912 52.5296 14.1997 52.3365C14.037 52.1647 13.9093 51.9629 13.8238 51.7423C13.7433 51.504 13.7023 51.2541 13.7025 51.0026C13.6952 50.6803 13.7748 50.3619 13.9329 50.081C14.084 49.8104 14.2906 49.5748 14.5393 49.3898C14.8046 49.2006 15.0997 49.0572 15.4123 48.9654C15.7555 48.8679 16.1106 48.8189 16.4673 48.8199C17.0788 48.8039 17.6855 48.9327 18.2377 49.1958V50.2265C17.6767 49.8552 17.0188 49.657 16.346 49.6566C16.1201 49.6555 15.8953 49.6882 15.6791 49.7536C15.4913 49.8062 15.3147 49.8925 15.1577 50.0082C15.0288 50.1241 14.9183 50.2591 14.8303 50.4084C14.7515 50.571 14.7101 50.7491 14.709 50.9298C14.7071 51.1044 14.7401 51.2775 14.806 51.4391C14.8723 51.5857 14.9671 51.7176 15.0849 51.8272C15.2397 51.9614 15.4108 52.0755 15.5942 52.1667C15.8004 52.2879 16.055 52.385 16.346 52.5062L17.3161 52.9549C17.5661 53.0856 17.7951 53.2532 17.9952 53.4521C18.1712 53.613 18.3081 53.8121 18.3954 54.0341C18.486 54.2743 18.5312 54.5292 18.5288 54.7859C18.5358 55.1106 18.4607 55.4318 18.3105 55.7196C18.1631 55.9962 17.956 56.2365 17.7042 56.423C17.4315 56.6146 17.128 56.7581 16.8068 56.8474C16.4352 56.9472 16.0518 56.9961 15.667 56.9929C14.9711 57.0121 14.2833 56.8401 13.6783 56.4957L13.654 55.4286ZM25.5377 56.8353V55.5014C25.3238 55.9619 24.9808 56.3504 24.5502 56.6195C24.1196 56.8886 23.6201 57.0268 23.1124 57.0171C21.2571 57.0171 20.3234 55.8773 20.3234 53.6218V49.0139H21.2935V53.4157C21.2357 54.1421 21.4098 54.8681 21.7907 55.4893C21.9697 55.7195 22.2029 55.902 22.4694 56.0205C22.736 56.139 23.0277 56.1898 23.3186 56.1683C23.6359 56.1685 23.9498 56.1024 24.2402 55.9743C24.5161 55.8421 24.7601 55.6518 24.9556 55.4165C25.1605 55.1626 25.3204 54.8755 25.4285 54.5677C25.5394 54.2147 25.5926 53.8462 25.5862 53.4763V49.026H26.5563V56.8353H25.5377ZM33.5409 56.8353V55.4529C33.3118 55.9455 32.9508 56.3652 32.4981 56.6655C32.0492 56.9396 31.5325 57.0825 31.0066 57.0778C30.6609 57.0785 30.3172 57.0253 29.988 56.9201C29.7043 56.8208 29.4442 56.6639 29.224 56.4593C29.008 56.2648 28.8381 56.0246 28.7268 55.756C28.6124 55.4666 28.5548 55.1578 28.5571 54.8466C28.5418 54.5354 28.5922 54.2245 28.705 53.9341C28.8178 53.6437 28.9905 53.3803 29.2119 53.161C29.7736 52.6871 30.4684 52.399 31.2006 52.3365L33.6258 51.9969C33.6258 50.4933 33.0438 49.7415 31.8796 49.7415C30.9435 49.7544 30.0453 50.1129 29.3574 50.7479V49.6808C29.5275 49.5564 29.7104 49.4507 29.9031 49.3655C30.1135 49.2649 30.3327 49.1838 30.5579 49.123C30.7891 49.0536 31.0238 48.997 31.2612 48.9533C31.4953 48.9356 31.7304 48.9356 31.9645 48.9533C32.3267 48.9273 32.6903 48.9788 33.0311 49.1042C33.3719 49.2297 33.6821 49.4262 33.9411 49.6808C34.4314 50.2979 34.6697 51.0778 34.608 51.8635V56.9565L33.5409 56.8353ZM31.528 53.0276C31.2246 53.0705 30.9247 53.1354 30.6306 53.2217C30.4092 53.288 30.2003 53.3904 30.0122 53.5248C29.8563 53.6545 29.7354 53.8213 29.6606 54.0099C29.5721 54.2334 29.5309 54.4729 29.5393 54.7132C29.538 54.9124 29.575 55.11 29.6484 55.2952C29.7197 55.4725 29.8319 55.6304 29.9758 55.756C30.1205 55.8943 30.2946 55.998 30.4851 56.0592C30.7032 56.1357 30.9332 56.1727 31.1642 56.1683C31.4948 56.1706 31.8218 56.1003 32.1222 55.9622C32.4056 55.8304 32.6609 55.6451 32.874 55.4165C33.091 55.1714 33.2597 54.8876 33.3712 54.5798C33.4854 54.2357 33.5427 53.8753 33.5409 53.5127V52.7487L31.528 53.0276ZM36.8635 56.8353V45.2669H37.8336V56.8353H36.8635ZM44.3817 55.2346C44.5733 55.3726 44.7761 55.4943 44.988 55.5984C45.2077 55.7068 45.4346 55.8 45.6671 55.8773C45.9096 55.95 46.1521 55.9985 46.3704 56.0471C46.5924 56.0643 46.8153 56.0643 47.0373 56.0471C47.6944 56.094 48.3492 55.9282 48.9048 55.5741C49.1078 55.408 49.2686 55.1961 49.374 54.9558C49.4794 54.7155 49.5263 54.4537 49.5111 54.1918C49.5205 53.9306 49.4751 53.6703 49.3777 53.4278C49.2631 53.1988 49.1068 52.9932 48.9169 52.8215C48.6843 52.6071 48.428 52.42 48.1529 52.2637L47.0616 51.6331L45.849 50.9056C45.5536 50.7057 45.2811 50.4739 45.0365 50.2144C44.8357 49.9868 44.6794 49.7236 44.5757 49.4383C44.4694 49.1386 44.416 48.8226 44.4181 48.5046C44.4077 48.0819 44.5081 47.6639 44.7091 47.292C44.8912 46.938 45.1527 46.6309 45.4731 46.3946C45.8092 46.1416 46.1866 45.9487 46.5887 45.8247C47.0605 45.7101 47.5473 45.6692 48.0317 45.7034C48.7668 45.6844 49.499 45.8037 50.1901 46.0551V47.1828C49.494 46.7957 48.7066 46.603 47.9104 46.625C47.603 46.6211 47.2966 46.6619 47.001 46.7463C46.7286 46.8144 46.4701 46.9293 46.237 47.0858C46.0307 47.2397 45.8575 47.4335 45.7277 47.6558C45.6026 47.8993 45.5401 48.1702 45.5458 48.444C45.5374 48.6961 45.5787 48.9474 45.6671 49.1837C45.7607 49.4052 45.9014 49.6038 46.0794 49.7657C46.2991 49.9762 46.5433 50.1594 46.8069 50.3114L47.8983 50.9177C48.3155 51.1333 48.7204 51.3722 49.1109 51.6331C49.4243 51.8376 49.7097 52.0822 49.9597 52.3607C50.1805 52.5914 50.3536 52.8633 50.469 53.161C50.5833 53.459 50.6409 53.7756 50.6388 54.0947C50.6413 54.5138 50.5501 54.9281 50.372 55.3074C50.1984 55.6634 49.9403 55.9715 49.6202 56.2047C49.2787 56.4578 48.8917 56.6431 48.4803 56.7504C48.0054 56.8749 47.5161 56.9361 47.0252 56.9323C46.8193 56.9476 46.6126 56.9476 46.4068 56.9323C46.1616 56.9096 45.9184 56.8691 45.6792 56.811C45.4452 56.7648 45.2144 56.704 44.988 56.6291C44.7994 56.5643 44.6168 56.4832 44.4423 56.3866L44.3817 55.2346ZM55.5378 56.7382C55.1952 56.909 54.817 56.9963 54.4343 56.9929C53.1732 56.9929 52.5426 56.2653 52.5426 54.8102V49.8748H51.1723V49.026H52.5426V47.0616L53.5127 46.7342V49.0381H55.5256V49.887H53.5127V54.6647C53.4688 55.0856 53.5578 55.5096 53.7673 55.8773C53.8739 56.0018 54.0088 56.0988 54.1608 56.16C54.3128 56.2212 54.4773 56.2449 54.6404 56.2289C54.9567 56.2262 55.2649 56.1291 55.5256 55.95L55.5378 56.7382ZM62.2435 56.8353V55.5014C62.0309 55.9629 61.6882 56.3522 61.2573 56.6215C60.8264 56.8908 60.3263 57.0283 59.8183 57.0171C57.963 57.0171 57.0293 55.8773 57.0293 53.6218V49.0139H57.9994V53.4157C57.9473 54.1416 58.1209 54.8659 58.4965 55.4893C58.677 55.7179 58.9104 55.8993 59.1766 56.0176C59.4428 56.1359 59.7338 56.1876 60.0244 56.1683C60.3418 56.1685 60.6557 56.1024 60.946 55.9743C61.2238 55.8452 61.4685 55.6544 61.6615 55.4165C61.8747 55.1683 62.0356 54.8796 62.1344 54.5677C62.2495 54.2154 62.3069 53.8469 62.3041 53.4763V49.026H63.2742V56.8353H62.2435ZM71.2169 56.8353V55.4529C70.9633 55.9329 70.5757 56.3289 70.1013 56.5927C69.6032 56.8764 69.0372 57.0189 68.4642 57.005C68.0085 57.0102 67.5573 56.915 67.1425 56.7261C66.7413 56.5544 66.3877 56.2881 66.1118 55.95C65.8162 55.5926 65.5937 55.1806 65.4569 54.7374C65.2905 54.2079 65.2086 53.6554 65.2144 53.1004C65.2068 52.5165 65.2928 51.9352 65.4691 51.3785C65.6209 50.8595 65.8767 50.3768 66.2209 49.9597C66.5284 49.5897 66.9133 49.2916 67.3486 49.0866C67.8097 48.8795 68.3105 48.776 68.8159 48.7835C69.3068 48.751 69.7966 48.8606 70.2267 49.0993C70.6569 49.3381 71.009 49.6957 71.2411 50.1295V45.279H72.2112V56.8474L71.2169 56.8353ZM71.2169 52.1061C71.2218 51.7888 71.1726 51.473 71.0714 51.1723C70.9579 50.8873 70.7889 50.6276 70.5742 50.4084C70.3618 50.185 70.106 50.0076 69.8224 49.887C69.5195 49.758 69.1936 49.6919 68.8644 49.693C68.4964 49.6932 68.1326 49.7718 67.7973 49.9233C67.4709 50.0784 67.1846 50.3067 66.9606 50.5903C66.7146 50.9004 66.5295 51.2542 66.4149 51.6331C66.2806 52.0859 66.2112 52.5554 66.2088 53.0276C66.2021 53.4749 66.2634 53.9206 66.3907 54.3494C66.4892 54.7104 66.6582 55.0483 66.8878 55.3437C67.0993 55.6093 67.3688 55.8229 67.6758 55.9679C67.9827 56.113 68.3188 56.1857 68.6582 56.1804C69.0295 56.1857 69.3975 56.1113 69.7375 55.9622C70.0461 55.8226 70.3221 55.62 70.5477 55.3673C70.7733 55.1145 70.9434 54.8174 71.0471 54.4949C71.1702 54.1527 71.2318 53.7915 71.229 53.4278L71.2169 52.1061ZM75.1821 47.0495C75.0015 47.0495 74.8278 46.98 74.6971 46.8554C74.6279 46.7905 74.5736 46.7114 74.538 46.6235C74.5024 46.5355 74.4863 46.4409 74.4909 46.3461C74.4866 46.255 74.5028 46.164 74.5385 46.08C74.5742 45.9961 74.6284 45.9212 74.6971 45.8611C74.7592 45.795 74.8344 45.7425 74.9179 45.7071C75.0014 45.6716 75.0914 45.6538 75.1821 45.6549C75.2706 45.6423 75.3604 45.6423 75.4489 45.6549C75.5354 45.6861 75.614 45.7357 75.6793 45.8005C75.7452 45.8626 75.7987 45.9366 75.8369 46.0187C75.9017 46.199 75.9017 46.3962 75.8369 46.5765C75.803 46.6611 75.7489 46.736 75.6793 46.7948C75.6232 46.8645 75.547 46.9153 75.461 46.9403C75.3768 46.996 75.2817 47.0332 75.1821 47.0495ZM74.6971 56.8353V49.026H75.6672V56.8353H74.6971ZM81.3907 57.0293C80.855 57.0379 80.3231 56.939 79.8264 56.7382C79.3668 56.5553 78.9529 56.2739 78.6138 55.9137C78.2879 55.5613 78.0326 55.1497 77.862 54.7011C77.6864 54.1692 77.6003 53.6119 77.6073 53.0519C77.5955 52.4579 77.6899 51.8665 77.8862 51.3057C78.0567 50.8108 78.3341 50.3596 78.6987 49.984C79.0351 49.6206 79.4498 49.3387 79.9113 49.1594C80.4215 48.9627 80.9653 48.868 81.512 48.8805C82.0349 48.8689 82.5547 48.9638 83.0399 49.1594C83.5021 49.3257 83.9179 49.6001 84.2525 49.9597C84.5586 50.321 84.7858 50.7423 84.9194 51.1966C85.2588 52.2988 85.2588 53.4776 84.9194 54.5798C84.7496 55.0507 84.4948 55.4864 84.1676 55.8652C83.8328 56.2332 83.4179 56.5195 82.955 56.7019C82.4622 56.9194 81.9293 57.0309 81.3907 57.0293ZM81.4635 49.693C81.0477 49.6854 80.6349 49.7639 80.2508 49.9233C79.9107 50.0674 79.6079 50.2872 79.3656 50.566C79.1098 50.8689 78.9162 51.2191 78.7957 51.5968C78.6584 52.0486 78.593 52.5191 78.6017 52.9913C78.5936 53.4395 78.6592 53.886 78.7957 54.313C78.919 54.6821 79.1126 55.0239 79.3656 55.3195C79.6014 55.6001 79.9007 55.8204 80.2387 55.9622C80.6223 56.123 81.0355 56.2015 81.4513 56.1926C81.8667 56.2099 82.2807 56.1354 82.6639 55.9743C82.9954 55.8271 83.2896 55.6075 83.5249 55.3316C83.7718 55.0393 83.95 54.6954 84.0463 54.3251C84.1732 53.8755 84.2345 53.4099 84.2282 52.9428C84.2909 52.0763 84.0414 51.216 83.5249 50.5175C83.2718 50.2259 82.9526 49.9989 82.5941 49.8555C82.2355 49.7121 81.8479 49.6563 81.4635 49.693ZM98.9494 56.423C98.0397 56.8347 97.0495 57.0377 96.0512 57.0171C95.3321 57.0262 94.6186 56.8901 93.9534 56.617C93.341 56.3557 92.7913 55.9672 92.3406 55.4771C91.8808 54.9813 91.5297 54.3948 91.3099 53.7552C91.0617 53.0546 90.9385 52.3158 90.9461 51.5725C90.9406 50.7878 91.0719 50.0082 91.3341 49.2685C91.573 48.5783 91.9483 47.9433 92.4376 47.4011C92.9253 46.8811 93.5158 46.4681 94.1717 46.1885C94.891 45.8785 95.6682 45.7255 96.4514 45.7398C97.3029 45.7284 98.1494 45.8722 98.9494 46.1642V47.2556C98.1691 46.8696 97.3098 46.6703 96.4393 46.6735C95.7902 46.6616 95.1459 46.7855 94.5476 47.0373C94.0163 47.269 93.5439 47.6171 93.1652 48.0559C92.7783 48.5067 92.4856 49.0303 92.3042 49.5959C92.1007 50.2224 91.9984 50.8774 92.0011 51.5361C92.0007 52.1403 92.0906 52.7411 92.2679 53.3187C92.4368 53.849 92.7042 54.3426 93.0561 54.7738C93.411 55.2009 93.859 55.541 94.3657 55.7682C94.9334 56.0222 95.5507 56.1465 96.1725 56.1319C97.1408 56.1452 98.0965 55.9115 98.9494 55.4529V56.423ZM104.285 57.0293C103.753 57.037 103.225 56.938 102.733 56.7382C102.271 56.5586 101.857 56.2767 101.52 55.9137C101.19 55.5643 100.935 55.1518 100.768 54.7011C100.593 54.1692 100.507 53.6119 100.514 53.0519C100.504 52.459 100.594 51.8687 100.78 51.3057C100.957 50.8108 101.238 50.3598 101.605 49.984C101.939 49.6183 102.355 49.3359 102.818 49.1594C103.328 48.9627 103.872 48.868 104.418 48.8805C104.937 48.8688 105.453 48.9637 105.934 49.1594C106.398 49.3226 106.814 49.5975 107.147 49.9597C107.475 50.3339 107.722 50.7714 107.874 51.2451C108.052 51.7972 108.138 52.3748 108.129 52.9549C108.137 53.5239 108.047 54.09 107.862 54.6283C107.703 55.104 107.447 55.5416 107.11 55.9137C106.777 56.2831 106.361 56.5695 105.898 56.7504C105.386 56.9573 104.836 57.0524 104.285 57.0293ZM104.37 49.693C103.954 49.684 103.541 49.7625 103.157 49.9233C102.817 50.0674 102.514 50.2872 102.272 50.566C102.012 50.866 101.818 51.2171 101.702 51.5968C101.565 52.0486 101.499 52.5191 101.508 52.9913C101.5 53.4395 101.565 53.886 101.702 54.313C101.821 54.6814 102.011 55.0232 102.26 55.3195C102.5 55.6003 102.804 55.8205 103.145 55.9622C103.888 56.261 104.718 56.261 105.461 55.9622C105.792 55.8196 106.083 55.5991 106.31 55.3195C106.56 55.0279 106.743 54.684 106.843 54.313C106.97 53.8634 107.032 53.3978 107.025 52.9306C107.088 52.0642 106.839 51.2039 106.322 50.5054C106.079 50.2314 105.777 50.0159 105.439 49.8752C105.101 49.7345 104.735 49.6722 104.37 49.693ZM115.526 56.8474V55.4529C115.277 55.932 114.893 56.3282 114.422 56.5927C113.97 56.8389 113.467 56.9789 112.952 57.002C112.438 57.0251 111.924 56.9308 111.451 56.7261C111.052 56.5515 110.699 56.2857 110.421 55.95C110.129 55.5898 109.907 55.1786 109.766 54.7374C109.604 54.2072 109.526 53.6548 109.535 53.1004C109.528 52.5165 109.614 51.9352 109.79 51.3785C109.944 50.8871 110.191 50.43 110.518 50.0325C110.82 49.6572 111.206 49.3582 111.645 49.1594C112.106 48.95 112.607 48.8464 113.113 48.8562C113.604 48.8206 114.095 48.929 114.526 49.168C114.957 49.4071 115.308 49.7665 115.538 50.2022V45.2669H116.508V56.8353L115.526 56.8474ZM115.526 52.1182C115.528 51.7901 115.466 51.4648 115.344 51.1602C115.235 50.8757 115.07 50.6159 114.859 50.3963C114.644 50.1763 114.388 49.9994 114.107 49.8748C113.8 49.7468 113.47 49.6808 113.137 49.6808C112.769 49.6822 112.406 49.7607 112.07 49.9112C111.749 50.07 111.468 50.2977 111.245 50.5782C110.995 50.8854 110.809 51.2401 110.7 51.621C110.562 52.077 110.497 52.5515 110.506 53.0276C110.501 53.4739 110.558 53.9187 110.675 54.3494C110.778 54.7112 110.951 55.0491 111.185 55.3437C111.39 55.6047 111.651 55.8161 111.949 55.9622C112.263 56.1099 112.607 56.1846 112.955 56.1804C113.322 56.1855 113.686 56.111 114.022 55.9622C114.328 55.8221 114.604 55.6245 114.835 55.3801C115.058 55.1191 115.23 54.8189 115.344 54.4949C115.467 54.1527 115.529 53.7915 115.526 53.4278V52.1182ZM119.479 53.1125C119.476 53.5485 119.541 53.9823 119.673 54.3979C119.774 54.7553 119.952 55.0863 120.194 55.368C120.421 55.6341 120.708 55.8421 121.031 55.9743C121.379 56.1243 121.755 56.1987 122.135 56.1926C123.048 56.1776 123.929 55.8526 124.633 55.271V56.2411C123.835 56.7894 122.884 57.0697 121.916 57.0414C121.429 57.0463 120.946 56.9514 120.498 56.7625C120.073 56.5898 119.698 56.3149 119.406 55.9622C119.087 55.5858 118.848 55.1485 118.703 54.6768C118.534 54.1145 118.452 53.5298 118.46 52.9428C118.459 52.3901 118.549 51.8411 118.727 51.3179C118.893 50.8476 119.143 50.4119 119.467 50.0325C119.778 49.6695 120.162 49.3762 120.595 49.1715C121.038 48.9632 121.523 48.8595 122.013 48.8684C122.471 48.8602 122.925 48.9469 123.347 49.123C123.724 49.2956 124.056 49.5529 124.317 49.8748C124.596 50.2341 124.798 50.6468 124.911 51.0875C125.059 51.5997 125.128 52.131 125.118 52.6639V53.1489L119.479 53.1125ZM124.111 52.2637C124.142 51.5848 123.936 50.9161 123.529 50.372C123.343 50.1469 123.107 49.9683 122.839 49.8505C122.572 49.7326 122.281 49.6787 121.989 49.693C121.673 49.69 121.359 49.7519 121.067 49.8748C120.789 49.993 120.537 50.1663 120.328 50.3841C120.104 50.6171 119.923 50.8881 119.794 51.1845C119.643 51.5275 119.545 51.8913 119.503 52.2637H124.111ZM72.5144 0V34.1109L42.7204 29.6848L72.5144 39.7131L82.4578 35.5902V4.13502L72.5144 0ZM62.0859 5.82055L52.9549 14.8182L47.4617 10.6953L45.2063 11.4471L50.7843 16.9766L45.2063 22.5061L47.4617 23.258L52.9549 19.1351L62.0859 28.1812L67.5426 25.8529V8.1609L62.0859 5.82055ZM62.0859 12.2474V21.7058L55.8045 16.9766L62.0859 12.2474Z" fill="#007ACC"/>
</svg>
